<?xml version="1.0" encoding="UTF-8"?>
<svg id="Layer_2" data-name="Layer 2" xmlns="http://www.w3.org/2000/svg" viewBox="0 0 695.25 706.5">
  <g id="Layer_1-2" data-name="Layer 1">
    <g>
      <polygon points="0 597.38 253.12 706.5 695.25 706.5 695.25 608.62 447.75 495 448.88 600.75 0 597.38"/>
      <path d="m137.95,495h232.17v-30.38h280.12v-96.75l-258.88-117v102.38l-256.19-1.02c-15-.06-27.19,12.08-27.19,27.08v85.73c0,16.54,13.41,29.95,29.95,29.95Z"/>
      <path d="m133.45,250.88h233.3v-31.5h328.5v-99L441,0l2.25,99-306.47,1.03c-15.91.05-28.78,12.97-28.78,28.88v96.52c0,14.06,11.4,25.45,25.45,25.45Z"/>
    </g>
  </g>
</svg>