<?xml version="1.0" standalone="no"?>
<!DOCTYPE svg PUBLIC "-//W3C//DTD SVG 20010904//EN"
 "http://www.w3.org/TR/2001/REC-SVG-20010904/DTD/svg10.dtd">
<svg version="1.0" xmlns="http://www.w3.org/2000/svg"
 width="196.000000pt" height="196.000000pt" viewBox="0 0 196.000000 196.000000"
 preserveAspectRatio="xMidYMid meet">

<g transform="translate(0.000000,196.000000) scale(0.100000,-0.100000)"
fill="#000000" stroke="none">
<path d="M914 1742 c-58 -20 -119 -65 -157 -115 -23 -30 -33 -35 -81 -39 -40
-3 -65 -12 -91 -32 -43 -33 -58 -65 -60 -128 -1 -40 -7 -53 -42 -91 -57 -62
-72 -134 -48 -223 14 -53 25 -71 69 -112 75 -71 96 -74 499 -70 323 3 333 4
379 26 175 86 211 322 70 455 -27 24 -65 50 -84 57 -31 11 -38 20 -47 54 -21
84 -103 177 -186 212 -60 25 -161 28 -221 6z m254 -69 c62 -43 94 -89 117
-168 14 -47 18 -52 58 -62 28 -8 59 -28 90 -58 112 -111 93 -285 -42 -380
l-43 -30 -364 -3 c-406 -3 -401 -4 -471 70 -41 43 -53 76 -53 147 0 47 5 66
28 100 15 23 38 48 50 56 18 13 21 25 20 71 -1 40 4 61 18 82 31 42 81 64 131
57 40 -6 43 -4 66 32 32 50 61 75 122 108 45 24 58 26 133 23 77 -4 86 -7 140
-45z"/>
<path d="M590 1195 c0 -57 4 -95 10 -95 6 0 10 33 11 78 l0 77 30 -77 c17 -43
35 -78 39 -78 5 0 19 31 31 69 13 39 26 68 31 65 4 -3 8 -34 8 -70 0 -37 4
-64 10 -64 7 0 10 33 8 93 -4 119 -21 124 -58 13 -30 -90 -35 -89 -69 17 -34
100 -51 91 -51 -28z"/>
<path d="M855 1278 c-46 -26 -63 -83 -39 -129 38 -74 151 -59 169 22 17 77
-65 144 -130 107z m95 -35 c17 -21 20 -36 16 -63 -7 -42 -28 -60 -71 -60 -43
0 -69 31 -68 78 2 69 81 98 123 45z"/>
<path d="M1057 1270 c-32 -25 -42 -69 -27 -115 13 -38 35 -55 74 -55 28 0 85
44 73 56 -4 4 -14 -2 -23 -14 -32 -46 -114 -14 -114 44 0 73 59 107 107 62 19
-18 23 -19 23 -5 0 20 -38 47 -66 47 -12 0 -33 -9 -47 -20z"/>
<path d="M1220 1195 c0 -57 4 -95 10 -95 6 0 10 13 10 28 0 16 9 37 21 48 22
20 18 23 60 -43 11 -18 27 -33 35 -33 9 0 2 16 -21 49 -19 26 -35 52 -35 57 0
4 14 23 32 41 54 56 20 50 -37 -7 l-55 -54 0 52 c0 29 -4 52 -10 52 -6 0 -10
-38 -10 -95z"/>
<path d="M796 793 c-3 -3 -6 -54 -6 -113 0 -98 -2 -108 -23 -128 -19 -18 -35
-22 -84 -22 -54 0 -63 3 -78 26 -20 31 -73 55 -106 47 -106 -26 -89 -182 20
-185 36 -1 81 26 88 53 5 16 15 19 65 19 70 0 121 21 137 56 6 14 11 74 11
134 0 99 -6 130 -24 113z m-234 -240 c10 -9 18 -27 18 -40 0 -28 -33 -63 -60
-63 -26 0 -60 34 -60 62 0 50 63 76 102 41z"/>
<path d="M1146 793 c-11 -11 -7 -213 5 -236 23 -44 50 -57 126 -57 62 0 72 -3
78 -20 10 -30 54 -60 90 -60 42 0 81 31 89 70 8 41 -16 96 -46 105 -56 18
-120 -3 -133 -45 -6 -17 -15 -20 -71 -20 -56 0 -68 4 -89 25 -23 22 -25 31
-25 129 0 96 -7 126 -24 109z m338 -239 c35 -34 8 -104 -40 -104 -30 0 -66 46
-58 74 13 44 68 61 98 30z"/>
<path d="M967 784 c-4 -4 -7 -94 -7 -199 l0 -192 -25 -13 c-38 -20 -59 -73
-45 -116 28 -84 152 -83 180 1 6 19 8 45 5 57 -9 29 -44 68 -62 68 -10 0 -13
43 -15 197 -3 185 -8 219 -31 197z m51 -440 c26 -18 30 -65 6 -88 -23 -24 -70
-20 -88 6 -23 32 -20 54 10 77 32 25 43 26 72 5z"/>
</g>
</svg>
